<svg xmlns="http://www.w3.org/2000/svg" viewBox="0 0 370.01 453.85"><defs><style>.cls-1{fill:#51936c;}.cls-2{fill:#306d49;}</style></defs><title>bananaColor</title><g id="stem"><path id="leaf" class="cls-1" d="M652,436c4.84,40.8,1.23,82.73-9.15,125.56a5.74,5.74,0,0,0,2.68,6.36,10.55,10.55,0,0,0,9,.65,10.9,10.9,0,0,0,7.27-8.88A716.45,716.45,0,0,0,668,436c.43,15,32.22,60.45,56,44,39.66-25.85,82.69-81.39,107.15-127.46a15.27,15.27,0,0,0,1.72-9.61c-.85-5.06-4.08-6.73-11.87-1.93-23.56,14.61-49.1,25.72-75.92,34.57a36.7,36.7,0,0,1-17,1.43c-13.79-2.11-12.82-6.16,9.42-13,22.87-7,44.3-14.67,62.1-23.93,11.67-6.07,20.65-16.49,24.07-29.19,2.64-9.77,2.22-20.4-.8-31A6.11,6.11,0,0,0,814.3,276c-43.56,21.42-81.75,43.67-114.85,50.86a1.4,1.4,0,0,1-.88-.08c-5-2.17-5.49-6.13-2.1-11.6a7.1,7.1,0,0,1,3.82-3c39.47-13,73.62-28.61,86.37-54.58a45.19,45.19,0,0,0-23.34-61.54L763,196c-7.14-1.91-10.52,3.2-13,10-9.07,17-25.39,33.79-44.35,50.54a6.09,6.09,0,0,1-4.13,1.54c-6.24-.07-9.66-2.6-8.73-8.93a3.3,3.3,0,0,1,1-1.87c18.78-17.84,33.6-36.94,41.44-58.27a15.26,15.26,0,0,0-1.52-13.5c-10.84-16.92-28.9-34.19-57.65-52a53.84,53.84,0,0,0-47.29-4.7,94.55,94.55,0,0,0-40.66,28.83,14.74,14.74,0,0,0-2.34,14.56C591.2,176.67,608.49,198.17,628,221v10c-22.73-18.12-42.14-44.31-58-79.16a4.79,4.79,0,0,0-8-1.14c-7.16,8.4-13.29,16.64-17.47,24.59a28.9,28.9,0,0,0,.3,27.33c18.55,33.74,46,56.56,80.23,71a4.32,4.32,0,0,1,1.72,1.3c4.27,5.37,1.9,10.63-4.23,15.83a3.33,3.33,0,0,1-3.37.56c-36.3-14.28-66.88-41.48-90.7-84a8.82,8.82,0,0,0-14.24-1.65,107.38,107.38,0,0,0-19.83,31.52A24.51,24.51,0,0,0,497,260.72c22,31,54.78,54.15,97.17,70.28-28.89-2.31-56.26-10.8-81.6-27.47a68.51,68.51,0,0,1-17.06-16.18L490,280a16.65,16.65,0,0,0-12.94-.79,8,8,0,0,0-5.57,8.31C467.83,309.06,468.9,329.7,477,349c13.57,15.25,43.43,25.45,104.48,26a13.52,13.52,0,0,1,7.27,2.2c7.63,5,8,9.66-3.75,13.82-36,4.41-74.48-6.1-114-23-8.48-3.24-10.25,0-5,10,27.21,46,61.47,85.22,107.48,113a38.24,38.24,0,0,0,30.64,4.09c5.33-1.6,18.44-13.87,21.18-16.07C636.09,470.35,644.6,454.86,652,436Z" transform="translate(-463.04 -115.41)"/></g><g id="stem-2" data-name="stem"><path id="stem-3" data-name="stem" class="cls-2" d="M543.15,267.93c22.74,31,66.52,58.72,108.3,70.66a5.45,5.45,0,0,1,3.94,5.25V368a6.34,6.34,0,0,1-7.43,6.27c-33.05-6-87.17-33.09-127.57-55.37a1.53,1.53,0,0,0-1.63,2.58c38.57,27.37,93.1,61.17,133.42,67.79a5.48,5.48,0,0,1,4.39,4,35.15,35.15,0,0,1,.18,17.81,8,8,0,0,1-5.91,5.85c-44.63,10.88-134.88-2.48-123.91,1.22,63.19,21.33,124.21-3.94,129.9,16.41,7.45,26.59-3.44,59.93,4.81,54.87,3.82-2.34,3.32-69.62,8.52-66.82a4,4,0,0,0,1.19.51c48.28,9.14,89-22.29,128.32-54.53a1.17,1.17,0,0,0-1.32-1.92c-42.89,24.13-84.65,44.52-120.22,44.48a7.29,7.29,0,0,1-7.24-7.13L670,367.72a6.28,6.28,0,0,1,5.41-6.39c33.1-4.48,73.15-21.12,109.32-39.64a1.33,1.33,0,0,0-1.1-2.42c-37.19,15.13-77.2,28.92-108.63,31a4.65,4.65,0,0,1-5.07-4.77l.46-31.47a6.61,6.61,0,0,1,4.21-6c32-12.6,64.87-41.58,89.67-77.07a1.07,1.07,0,0,0-1.64-1.37c-29.83,29.68-62.2,55-88.14,64.91a3.67,3.67,0,0,1-4.94-3.64c2.86-55.24.17-105.3-12.66-145.9a.68.68,0,0,0-1.35,0c5.42,39.7,6.54,77.82-.34,113.24a3.61,3.61,0,0,1-5.38,2.44c-21.11-12.52-47.75-35.73-69-56.44a2,2,0,0,0-3,2.55c17.7,25.78,46,55.43,71.75,75.82a8.15,8.15,0,0,1,3.05,6l1.25,25a6.21,6.21,0,0,1-7.23,6.44c-34.91-5.72-73.28-29.62-100.29-54.89A2.11,2.11,0,0,0,543.15,267.93Z" transform="translate(-463.04 -115.41)"/></g></svg>