<svg xmlns="http://www.w3.org/2000/svg" viewBox="0 0 302.65 469.71"><defs><style>.cls-1{fill:#1691a5;}.cls-2{fill:#cc216e;}</style></defs><title>bikiniColor</title><g id="top"><path class="cls-1" d="M644.5,332.5h38c47,46,143,19,119-72-21.94-48.32-40.54-94.72-52-137-6-13-25.63-5.28-22,7,9.4,29.39,18,58,18.93,79.41.06,1.45.21,2.88.28,4.33,1,20.12-47.88,35.7-71.21,86.26l-28-1c-21-53-80-61-71-96l20-75c2.38-10.46-18.85-19-23-4-23,83.09-56,131.57-55,165C522.5,345.5,584.5,380.5,644.5,332.5Z" transform="translate(-509.63 -115.79)"/></g><g id="bottoms"><path class="cls-1" d="M531.51,447.24a1024.6,1024.6,0,0,0,261.71-.08,16.79,16.79,0,0,1,18.87,14.23c0,.11,0,.23,0,.34a18.9,18.9,0,0,1-14.08,20.55q-66.94,17-110.08,94.83a16.32,16.32,0,0,1-14.29,8.39h-19a17.78,17.78,0,0,1-15.88-9.87C614.21,526.48,576.1,493,520.67,479.68a14.32,14.32,0,0,1-10.92-15.77c0-.25.07-.5.11-.75A19.32,19.32,0,0,1,531.51,447.24Z" transform="translate(-509.63 -115.79)"/></g><g id="dots"><circle class="cls-2" cx="82.37" cy="221.21" r="8"/><circle class="cls-2" cx="263.37" cy="106.21" r="8"/><circle class="cls-2" cx="85.37" cy="176.21" r="8"/><circle class="cls-2" cx="188.37" cy="188.21" r="8"/><path class="cls-2" d="M551,192c-.21,0-.41,0-.61,0-1.23,4.36-3.28,8.45-4.42,12.84a5.12,5.12,0,0,1-.37,1A8,8,0,1,0,551,192Z" transform="translate(-509.63 -115.79)"/><circle class="cls-2" cx="162.37" cy="198.21" r="8"/><circle class="cls-2" cx="252.37" cy="76.21" r="8"/><path class="cls-2" d="M745,162a8,8,0,0,0-6.66,3.58c1.31,3.54,1.19,7.39,2.41,11.19A8,8,0,1,0,745,162Z" transform="translate(-509.63 -115.79)"/><path class="cls-2" d="M754.24,139.48a6.47,6.47,0,0,1-.56-2.45c-.23,0-.45,0-.68,0a8,8,0,1,0,4.88,14.33C756,147.68,755.92,143.24,754.24,139.48Z" transform="translate(-509.63 -115.79)"/><path class="cls-2" d="M733,122a8,8,0,0,0-5.81,2.51s0,0,0,0c-.9,3.48,0,7.75,1.5,11.08a8.3,8.3,0,0,1,.76,1.52A8,8,0,1,0,733,122Z" transform="translate(-509.63 -115.79)"/><path class="cls-2" d="M585.23,116a7.32,7.32,0,0,1-1.4,0,8.48,8.48,0,0,0-5.71,1.06c-.77.67-1.59,1.25-2.3,1.93a13.2,13.2,0,0,0-1.31,1.74,24.6,24.6,0,0,0-1.72,4.83A8,8,0,1,0,585.23,116Z" transform="translate(-509.63 -115.79)"/><path class="cls-2" d="M591.6,149.08c.84-3.16,1.68-6.31,2.24-9.53A8,8,0,1,0,588,153a8.09,8.09,0,0,0,2.27-.34C590.7,151.46,591.15,150.27,591.6,149.08Z" transform="translate(-509.63 -115.79)"/><path class="cls-2" d="M567,153a7.94,7.94,0,0,0-2.63.45c-1.09,3.68-2.16,7.37-3.26,11a5.07,5.07,0,0,1-.54,1.25A8,8,0,1,0,567,153Z" transform="translate(-509.63 -115.79)"/><circle class="cls-2" cx="137.37" cy="203.21" r="8"/><path class="cls-2" d="M578.22,196c1.48-4.83,3.4-9.51,4.47-14.46A8,8,0,1,0,578,196Z" transform="translate(-509.63 -115.79)"/><circle class="cls-2" cx="227.37" cy="166.21" r="8"/><circle class="cls-2" cx="252.37" cy="192.21" r="8"/><circle class="cls-2" cx="260.37" cy="156.21" r="8"/><circle class="cls-2" cx="225.37" cy="200.21" r="8"/><circle class="cls-2" cx="252.37" cy="221.21" r="8"/><circle class="cls-2" cx="276.37" cy="136.21" r="8"/><circle class="cls-2" cx="219.37" cy="139.21" r="8"/><circle class="cls-2" cx="52.37" cy="225.21" r="8"/><circle class="cls-2" cx="110.37" cy="217.21" r="8"/><circle class="cls-2" cx="116.37" cy="187.21" r="8"/><circle class="cls-2" cx="68.37" cy="198.21" r="8"/><circle class="cls-2" cx="108.37" cy="158.21" r="8"/><circle class="cls-2" cx="223.37" cy="225.21" r="8"/><path class="cls-2" d="M800,316.66a38.3,38.3,0,0,0,1.77-4.53,8,8,0,1,0-4,8.94C798.37,319.61,799.2,318.29,800,316.66Z" transform="translate(-509.63 -115.79)"/><circle class="cls-2" cx="284.37" cy="163.21" r="8"/><circle class="cls-2" cx="247.37" cy="123.21" r="8"/><circle class="cls-2" cx="33.37" cy="136.21" r="8"/><circle class="cls-2" cx="23.37" cy="168.21" r="8"/><circle class="cls-2" cx="82.37" cy="139.21" r="8"/><circle class="cls-2" cx="188.37" cy="217.21" r="8"/><circle class="cls-2" cx="57.37" cy="118.21" r="8"/><circle class="cls-2" cx="52.37" cy="163.21" r="8"/><circle class="cls-2" cx="199.37" cy="160.21" r="8"/><circle class="cls-2" cx="33.37" cy="195.21" r="8"/></g></svg>