<svg xmlns="http://www.w3.org/2000/svg" viewBox="0 0 448.47 625.73"><defs><style>.cls-1{fill:#26a38b;}.cls-2{fill:none;}.cls-3{fill:#0b846d;}.cls-4{fill:#ea8c06;}.cls-5{fill:#a05b10;}.cls-6{fill:#bf6f04;}</style></defs><title>cactusColor</title><g id="cactus"><path class="cls-1" d="M518.42,487.33l-2.12-75.86c-126.49-24-143.66-112.15-142.95-170.55,0-64.88,80.78-80.64,87.75-25.49a101.59,101.59,0,0,1,.33,20.63c-3.85,49.27,10,82.08,54.87,86.2V81.36c0-100.64,160.1-100.64,160.1,0v196.7c48.37,18.32,49.79-225.47,111.53-156,26.18,29.46,32.86,71.3,18.42,108-22,56-69.49,123.13-131.18,128.75l2.13,128.55Z" transform="translate(-365.35 -5.88)"/><line class="cls-2" y1="180.06" x2="1.8" y2="163.91"/></g><g id="Layer_4" data-name="Layer 4"><path class="cls-3" d="M791.05,128.25C776.8,243,738.61,320,663.85,339.49a14,14,0,0,0-10.28,11.85,431.19,431.19,0,0,0,1.28,112.82h19.71V369.69a9.9,9.9,0,0,1,8.76-9.89c40.9-4.38,81.44-43.68,121.52-125.89a82.62,82.62,0,0,0,8.37-36.21h0a114.39,114.39,0,0,0-7.68-41.64A131.83,131.83,0,0,0,791.05,128.25Z" transform="translate(-365.35 -5.88)"/><path class="cls-3" d="M654,262.83C649.55,177.34,640.44,89.6,646.51,22c42.41,27.92,43,108.89,29.28,257.76l-6-.55A17.41,17.41,0,0,1,654,262.83Z" transform="translate(-365.35 -5.88)"/><path class="cls-3" d="M404,188.56c-47,61.62-6.19,182.87,111.73,224.65C459.1,402,412.3,377.7,387.62,324,367.56,254.23,364.94,201.3,404,188.56Z" transform="translate(-365.35 -5.88)"/></g><g id="pot"><polygon id="pot2" class="cls-4" points="106.22 458.28 358.81 458.28 350.5 498.79 334.44 498.79 299.33 625.73 165.64 625.73 129.99 497.57 114.32 497.44 106.22 458.28"/><polygon id="pottop" class="cls-5" points="129.99 497.57 334.44 497.57 328.08 521.78 136.72 521.78 129.99 497.57"/><polygon id="pot1" class="cls-6" points="136.72 521.78 328.08 521.78 299.33 625.73 165.64 625.73 136.72 521.78"/></g></svg>