<svg xmlns="http://www.w3.org/2000/svg" viewBox="0 0 269.38 490"><defs><style>.cls-1{fill:#ffc35a;}.cls-2{fill:#5fd65f;}.cls-3,.cls-6{fill:#2fc12f;}.cls-4{fill:#d8d8d8;opacity:0.42;}.cls-5{fill:#ff578f;}.cls-6{opacity:0.98;}</style></defs><title>drinkColor</title><g id="straw"><path class="cls-1" d="M315.22,153.38l-1.51,6.56a3.3,3.3,0,0,0,2.31,3.93l47.41,13.68a3.26,3.26,0,0,1,2.16,2l44.59,114.36a3.31,3.31,0,0,0,3.08,2.11h10.83a3.32,3.32,0,0,0,3.08-4.55L377.61,168.51a3.32,3.32,0,0,0-2.18-1.95l-56.09-15.63A3.32,3.32,0,0,0,315.22,153.38Z" transform="translate(-313.62 -150)"/></g><g id="lime2"><path class="cls-2" d="M451,218h68a520,520,0,0,0-8,64C474.71,276.74,454.47,255.61,451,218Z" transform="translate(-313.62 -150)"/><path class="cls-3" d="M459.84,239.92A71.79,71.79,0,0,1,454,224.2a4.55,4.55,0,0,1,4.18-5.59l46.7-2.49-38.43,25.57A4.55,4.55,0,0,1,459.84,239.92Z" transform="translate(-313.62 -150)"/><path class="cls-3" d="M477.11,260.92a75.16,75.16,0,0,1-11.25-12.59,4.52,4.52,0,0,1,1.58-6.73l40.76-19.15L483.66,260.2A4.29,4.29,0,0,1,477.11,260.92Z" transform="translate(-313.62 -150)"/><path class="cls-3" d="M506.42,274.83a71.84,71.84,0,0,1-16.15-4.55,4.54,4.54,0,0,1-2-6.67l25.59-39.15-2.09,46.11A4.54,4.54,0,0,1,506.42,274.83Z" transform="translate(-313.62 -150)"/></g><g id="glass"><path class="cls-4" d="M354,218c10.6,28.49,12.42,51.16,10.26,71.29-3.94,36.73-21.13,65-22.42,104.65a100.87,100.87,0,0,0,2.33,25.34c11.87,53,49.41,62.8,64.14,78.42C410,499.52,443,546,411,597c-13.56,23.25-55.28,19.28-59,36.46-.3,1.38-2,6.54-2,6.54H523a18.14,18.14,0,0,0-1.86-8.17,20.52,20.52,0,0,0-14-10.93C486.65,616.23,421.79,594,459.93,504,471,486,529,472,531,401c4.14-37.28-16-68.36-20-113-1.8-20-.34-42.76,8-70Z" transform="translate(-313.62 -150)"/></g><g id="drink"><path class="cls-5" d="M362,289l149-1c21,103,47,148-45.88,210-1.42,1-2.69,2.11-4.11,3-16.83,11-31.92,10.11-45.93,1.95-2.91-1.69-5.26-4.13-8-6C317,435,342,386,362,289Z" transform="translate(-313.62 -150)"/></g><g id="lime"><path class="cls-2" d="M517,150a66,66,0,0,0-66,66c0,.67,0,1.33.05,2h64.71a2.42,2.42,0,0,1,2.34,3.07c-4.93,17.61-7.06,38.23-7.54,60.61q3.18.31,6.44.32a66,66,0,0,0,0-132Z" transform="translate(-313.62 -150)"/><path class="cls-3" d="M491.63,160.78a72,72,0,0,1,16-5,4.54,4.54,0,0,1,5.36,4.47V207l-23.48-39.74A4.55,4.55,0,0,1,491.63,160.78Z" transform="translate(-313.62 -150)"/><path class="cls-3" d="M523.84,156a71.56,71.56,0,0,1,16.25,4.15,4.54,4.54,0,0,1,2.22,6.62L517.7,206.56l.93-46.15A4.55,4.55,0,0,1,523.84,156Z" transform="translate(-313.62 -150)"/><path class="cls-6" d="M467.12,179.55a72,72,0,0,1,11.82-11.9,4.54,4.54,0,0,1,6.83,1.45l21.8,41.38-39.3-24.21A4.55,4.55,0,0,1,467.12,179.55Z" transform="translate(-313.62 -150)"/><path class="cls-3" d="M553.52,168.37A71.94,71.94,0,0,1,565.6,180a4.53,4.53,0,0,1-1.35,6.84l-41,22.44,23.61-39.67A4.55,4.55,0,0,1,553.52,168.37Z" transform="translate(-313.62 -150)"/><path class="cls-3" d="M572.09,193.42A71.15,71.15,0,0,1,577,209.3a4.49,4.49,0,0,1-4.45,5.28l-46.3-.26,39.47-23A4.51,4.51,0,0,1,572.09,193.42Z" transform="translate(-313.62 -150)"/><path class="cls-3" d="M576,224.6a71.18,71.18,0,0,1-4,16.13,4.49,4.49,0,0,1-6.53,2.25l-39.61-24,45.7.49A4.51,4.51,0,0,1,576,224.6Z" transform="translate(-313.62 -150)"/><path class="cls-3" d="M564.05,252.87a71.44,71.44,0,0,1-11.17,12.29,4.49,4.49,0,0,1-6.81-1.14L522.7,224l39.93,22.24A4.5,4.5,0,0,1,564.05,252.87Z" transform="translate(-313.62 -150)"/><path class="cls-3" d="M537.65,270.47a71,71,0,0,1-15.94,4.67,4.49,4.49,0,0,1-5.22-4.52l.88-46.29,22.5,39.77A4.5,4.5,0,0,1,537.65,270.47Z" transform="translate(-313.62 -150)"/><path class="cls-3" d="M454.54,209.75a71.83,71.83,0,0,1,3.26-16.29,4.5,4.5,0,0,1,6.43-2.53l40.6,22.26-45.67,1.47A4.5,4.5,0,0,1,454.54,209.75Z" transform="translate(-313.62 -150)"/></g></svg>