<svg xmlns="http://www.w3.org/2000/svg" viewBox="0 0 236.38 505.1"><defs><style>.cls-1{fill:#f9cd41;stroke:#fff;stroke-miterlimit:10;}.cls-2{fill:#fff;}.cls-3{fill:#00a552;}</style></defs><title>pineappleColor</title><g id="pineapple"><path id="pineapple-2" data-name="pineapple" class="cls-1" d="M623.47,384.11c-33.45-10.9-70.42-4.93-97.58,17.43-30.16,24.84-43,64.32-47.39,111C460.86,627.73,526.92,654.05,604,655c80.38,2.55,113.1-54.14,105.5-144.5Q700.58,409.1,623.47,384.11Z" transform="translate(-475.12 -150.48)"/><g id="marks"><path class="cls-2" d="M589.5,384.5q4.2,3.09,8.34,6.26l8.2,6.44,7.68,7,7.63,7.08q15.2,14.22,29.91,28.94t28.93,29.92l7.08,7.63,7,7.68C698.56,491,702.88,496.39,707,502q-3.78-3.6-7.47-7.27l-7.47-7.25-7-7.66L678,472.21Q663.83,457,649.14,442.36T619.3,413.49l-7.61-7.06-7.67-7L596.75,392Q593.09,388.29,589.5,384.5Z" transform="translate(-475.12 -150.48)"/><path class="cls-2" d="M542.78,391.93c3.85,3,7.69,6.05,11.49,9.13s7.57,6.2,11.32,9.34c7.18,6.63,14.35,13.28,21.43,20q21.27,20.18,41.92,41t40.77,42.12q10.08,10.66,20,21.41c6.26,7.52,12.57,15,18.69,22.62q-5.26-5.12-10.45-10.29L687.53,537q-9.94-10.74-20-21.39-20.12-21.27-40.72-42.07T585,432.59q-10.62-10.08-21.41-20Z" transform="translate(-475.12 -150.48)"/><path class="cls-2" d="M510.83,414.85l6.14,5.52,6.09,5.58,12.17,11.16,23.32,23.34,46.67,46.67,46.67,46.66,23.33,23.34c7.42,8.13,14.92,16.18,22.27,24.39-8.21-7.35-16.26-14.85-24.39-22.27l-23.34-23.33L603.1,509.24l-46.67-46.67-23.34-23.32-11.16-12.17L516.35,421Z" transform="translate(-475.12 -150.48)"/><path class="cls-2" d="M492.32,448.34l5.86,5.48,5.81,5.52,11.62,11,22.3,23q22.38,22.92,45,45.59t45.52,45l23,22.3,11.06,11.6,5.54,5.78,5.51,5.83c-8.16-6.91-16.15-14-24.19-21l-23-22.31q-22.92-22.39-45.54-45.08t-45-45.61l-22.33-23C506.38,464.45,499.25,456.49,492.32,448.34Z" transform="translate(-475.12 -150.48)"/><path class="cls-2" d="M482.07,491.93c6.92,6.26,13.72,12.64,20.52,19l19.5,20q19.54,19.94,39.26,39.72T601,610l20,19.49,9.55,10.21,4.79,5.1,4.75,5.13c-7.15-6-14.14-12.17-21.18-18.28l-20-19.51Q579,592.57,559.23,572.77T520,533l-19.52-20C494.25,506.06,488.09,499.06,482.07,491.93Z" transform="translate(-475.12 -150.48)"/><path class="cls-2" d="M475.5,538.5q3.6,3.53,7.14,7.1l7.11,7.11,6.67,7.48,6.76,7.41q13.6,14.73,27.83,28.89t29,27.74l7.41,6.76,7.47,6.69,7.06,7.16q3.57,3.54,7.08,7.16c-5.47-3.9-10.78-8-16.14-12.08-2.51-2.21-5-4.49-7.49-6.71L558,626.43q-14.81-13.62-29.06-27.82t-27.91-29l-6.78-7.43-6.71-7.49-6.1-8Q478.41,542.62,475.5,538.5Z" transform="translate(-475.12 -150.48)"/><path class="cls-2" d="M487.5,462.5c2.37-3.83,4.9-7.53,7.46-11.21,2.93-3.37,5.85-6.75,8.82-10.09q8.91-10,18.25-19.63t19.21-18.72q4.93-4.55,10-8.93c1.84-1.28,3.7-2.55,5.56-3.81s3.78-2.43,5.69-3.61l-9.29,9.69q-5,4.37-9.94,8.87-9.81,9-19.09,18.6T506,443.2c-2.95,3.32-5.89,6.66-8.76,10.06C494,456.35,490.83,459.47,487.5,462.5Z" transform="translate(-475.12 -150.48)"/><path class="cls-2" d="M476.5,526.5c5.06-6.63,10.26-13.13,15.52-19.6,5.61-6.15,11.21-12.3,16.88-18.4q17-18.3,34.49-36.11t35.76-34.88q9.12-8.55,18.46-16.84c6.56-5.16,13.14-10.28,19.89-15.17L613,389.85c-1.51,1.45-3,2.86-4.51,4.32-3,2.92-6,5.79-8.91,8.74q-9.3,8.28-18.4,16.79-18.21,17-35.67,34.79T511.1,490.54q-8.48,9.13-16.84,18.39C488.36,514.79,482.49,520.7,476.5,526.5Z" transform="translate(-475.12 -150.48)"/><path class="cls-2" d="M479.5,577.5c6.87-7.75,13.87-15.38,20.87-23l21.94-21.93,43.88-43.87,43.87-43.88L632,422.88c7.67-7,15.26-14,23-20.88-6.88,7.74-13.92,15.33-20.88,23l-21.93,21.94-43.88,43.87-43.87,43.88-21.93,21.94C494.88,563.63,487.25,570.63,479.5,577.5Z" transform="translate(-475.12 -150.48)"/><path class="cls-2" d="M496.5,611.5l5.5-6.12,5.56-6.07,11.12-12.13,23.26-23.24,46.5-46.5,46.5-46.5,23.25-23.25c8.11-7.39,16.13-14.87,24.31-22.19-7.32,8.18-14.8,16.2-22.19,24.31l-23.25,23.25-46.5,46.5-46.5,46.5-23.24,23.26-12.13,11.12L502.62,606Z" transform="translate(-475.12 -150.48)"/><path class="cls-2" d="M525.5,639.5c6.79-7.67,13.7-15.22,20.62-22.76l21.69-21.68,43.38-43.37,43.37-43.38,21.69-21.68c7.59-6.87,15.09-13.83,22.75-20.63-6.8,7.66-13.76,15.16-20.63,22.75l-21.68,21.69-43.38,43.37-43.37,43.38-21.68,21.69C540.72,625.8,533.17,632.71,525.5,639.5Z" transform="translate(-475.12 -150.48)"/><path class="cls-2" d="M565.5,652.5c5.75-6.2,11.59-12.28,17.41-18.38q9.21-8.67,18.29-17.44,18.21-17.53,36.07-35.41t35.4-36.07q8.76-9.11,17.45-18.28l9.19-8.71,4.57-4.38,4.62-4.33c-5.29,6.59-10.78,13-16.2,19.48q-8.7,9.18-17.47,18.3-17.55,18.22-35.44,36.11t-36.11,35.45L585,636.31C578.56,641.78,572.1,647.22,565.5,652.5Z" transform="translate(-475.12 -150.48)"/><path class="cls-2" d="M617.5,654.5q2.89-3,5.85-6l5.87-5.92q6.3-5.42,12.46-11Q654,620.49,665.82,608.8t22.95-24l5.53-6.19,5.44-6.27L711.5,560.5c-1.53,2.33-3.07,4.66-4.64,7L702,574.29l-5.47,6.3L691,586.81q-11.21,12.38-23.06,24.12t-24.24,22.92l-6.22,5.55-6.27,5.5-6.79,4.89C622.13,651.38,619.82,653,617.5,654.5Z" transform="translate(-475.12 -150.48)"/></g></g><g id="leaves"><g id="leaf"><path class="cls-3" d="M559,388c-15.26-15.08-43.74-25.75-59-24,1.92-2.29,12.83-4.15,16.73-5.58,13.22-4.83,27.88,1.47,34.17,14.06C553.23,377.15,559.41,385,559,388Z" transform="translate(-475.12 -150.48)"/><path class="cls-3" d="M482,320c32.19,13.66,64.1,38.23,80,66l24-2C573.66,334.3,529.45,316,482,320Z" transform="translate(-475.12 -150.48)"/><path class="cls-3" d="M492.38,261.59c27.33-15.74,58.6,28.39,71.86,60A110.25,110.25,0,0,0,573.5,339c10.74,16.52,9.15,44.82,16.25,45.12,6.83.29,14.42-38.31,29.14-55.42a182.29,182.29,0,0,0,17.72-24.49c13.82-22.86,30.86-37.94,52-43.14-46.48-7.5-75.77,11.83-90.56,53.82a1.28,1.28,0,0,1-2.4.19C570.56,264.63,530.87,239.43,492.38,261.59Z" transform="translate(-475.12 -150.48)"/><path class="cls-3" d="M560.18,270c-.76-4.75,8.53-37.19,9.38-34.32C585,246,598,287,598,313c0,4.93,0,6-2,6C589.24,305,572.38,277.85,560.18,270Z" transform="translate(-475.12 -150.48)"/><path class="cls-3" d="M603,304c-.4-16.52,9-48.26,24.88-56.59l6.24,19.81a2.07,2.07,0,0,1-1.35,2.59C625.64,272.25,607,294.23,603,304Z" transform="translate(-475.12 -150.48)"/><path class="cls-3" d="M558.06,261c-.87-5.76-4.62-3.35-5.92-9.08-6.34-27.84-33.32-58.34-70.92-81.3,38.95-9.91,73.89,1.29,100.82,54.65l5.58-74.83c24.69,10.21,30.1,42.19,33.77,76.13,15.37-35,41.63-51.2,79.32-47.72-24.74,19.6-40.1,46.91-49.27,79.31l-13.65,5.47c-2.83-18.16-5.93-29-9.28-32.88-22.66,11.67-26.84,41.56-28.36,74.08-3-35.7-10.41-67.61-31.31-87.89C563.16,229.13,559.53,243.77,558.06,261Z" transform="translate(-475.12 -150.48)"/><path class="cls-3" d="M633.07,388c-1.35-39.33,15.14-66.95,56.93-78-42.9-5.17-77.54,10.39-93,74Z" transform="translate(-475.12 -150.48)"/><path class="cls-3" d="M637.32,366.29c-1.89,6.63-3.14,19.12-4.32,26.71,16.19-25.43,34.7-45.6,57-44a74.61,74.61,0,0,0-23.09-4.68A30.1,30.1,0,0,0,637.32,366.29Z" transform="translate(-475.12 -150.48)"/></g></g></svg>