<svg id="Layer_2" data-name="Layer 2" xmlns="http://www.w3.org/2000/svg" viewBox="0 0 431.28 373.69"><defs><style>.cls-1{fill:#9dbcc4;}.cls-2{fill:#c6ebf4;}</style></defs><title>plane</title><path class="cls-1" d="M513.5,318.5h303a121.7,121.7,0,0,1,47.75,9.57q45.72,19.51-13.93,39a90.67,90.67,0,0,1-28.12,4.41H513.5v-53Z" transform="translate(-452.83 -159)"/><path class="cls-1" d="M571.64,164.11l50.24,156.38h90s0,0,0,0l-97.72-159.6a3.94,3.94,0,0,0-3.34-1.87H575.37A3.92,3.92,0,0,0,571.64,164.11Z" transform="translate(-452.83 -159)"/><path class="cls-1" d="M572.14,528l49.19-157.18,90-.68L614.71,530.68a3.62,3.62,0,0,1-3.06,1.74l-36,.27A3.6,3.6,0,0,1,572.14,528Z" transform="translate(-452.83 -159)"/><path class="cls-1" d="M458.23,275h21a5.41,5.41,0,0,1,4.37,2.23L514,319v53l-29.39,41.71A5.39,5.39,0,0,1,480.2,416H458.26a5.4,5.4,0,0,1-5.17-7l18.19-60.63a8.5,8.5,0,0,0,0-4.82l-18.24-61.65A5.41,5.41,0,0,1,458.23,275Z" transform="translate(-452.83 -159)"/><path class="cls-2" d="M849,329c2.68,10.69,3.68,21.13,1,31,0,3.77,26.36-9.16,31-16C883.34,343.15,849,325.11,849,329Z" transform="translate(-452.83 -159)"/></svg>