<svg xmlns="http://www.w3.org/2000/svg" viewBox="0 0 429.27 424.32"><defs><style>.cls-1{fill:#ffb208;}.cls-2{fill:#f93;}</style></defs><title>starfishColor</title><g id="star"><path id="Star-2" data-name="Star" class="cls-1" d="M596.5,309.66c17.64-16.28-15.9-73.35-38-138.46-6.29-18.52,17.75-31.85,30.24-16.8,37.35,45,70.69,113.7,97.26,111.79,3-.22,6-.29,9-.37,26.18-.75,74.77-30.11,130.46-68.52,12.53-8.65,27.7,6.6,19,19.07-31.08,44.41-74.54,83.24-67.67,112.47.52,2.21.87,4.46,1.31,6.7,6.05,30.88,56.27,46.48,103,78.67,16.06,11.06,4.85,36.18-14.07,31.43-58.2-14.64-105.41-49.73-147.36-41.37-.75.15-1.5.25-2.26.37-30,4.62-26.68,79.22-40.17,150.53-4.46,23.54-38.54,22.36-41.34-1.44-7.62-64.89-6.07-127.56-18-138.76-1.63-1.54-3.41-2.92-5-4.48-19.52-18.79-68.25-9.05-135.54-3.27-19,1.63-25-25-7.09-31.63,63.74-23.52,114.77-50.23,124.49-63.8A13.66,13.66,0,0,1,596.5,309.66Z" transform="translate(-459.47 -147.89)"/></g><g id="tentacle"><circle class="cls-2" cx="122.53" cy="28.11" r="7.5"/><circle class="cls-2" cx="139.53" cy="61.11" r="11.5"/><circle class="cls-2" cx="183.03" cy="140.61" r="17"/><circle class="cls-2" cx="160.03" cy="98.61" r="14"/><circle class="cls-2" cx="364.89" cy="68.11" r="7.5"/><circle class="cls-2" cx="336.41" cy="91.92" r="11.5"/><circle class="cls-2" cx="268.35" cy="151.76" r="17"/><circle class="cls-2" cx="304.31" cy="120.13" r="14"/><circle class="cls-2" cx="398.24" cy="274.59" r="7.5"/><circle class="cls-2" cx="364.92" cy="258.24" r="11.5"/><circle class="cls-2" cx="282.59" cy="220.37" r="17"/><circle class="cls-2" cx="326.1" cy="240.37" r="14"/><circle class="cls-2" cx="197.26" cy="385.49" r="7.5"/><circle class="cls-2" cx="199.25" cy="348.43" r="11.5"/><circle class="cls-2" cx="201.86" cy="257.84" r="17"/><circle class="cls-2" cx="200.5" cy="305.71" r="14"/><circle class="cls-2" cx="37.58" cy="240.09" r="7.5"/><circle class="cls-2" cx="73.66" cy="231.35" r="11.5"/><circle class="cls-2" cx="161.17" cy="207.83" r="17"/><circle class="cls-2" cx="114.93" cy="220.28" r="14"/><circle class="cls-2" cx="219.53" cy="190.11" r="19"/></g></svg>