<svg xmlns="http://www.w3.org/2000/svg" viewBox="0 0 429.27 424.32"><defs><style>.cls-1{fill:#ffb208;}.cls-2{fill:#f93;}.cls-3{fill:#e8e8e8;}.cls-4{fill:#494949;}.cls-5{fill:#e5e5e5;}</style></defs><title>starfishFlip</title><g id="star"><path id="Star-2" data-name="Star" class="cls-1" d="M596.5,309.66c17.64-16.28-15.9-73.35-38-138.46-6.29-18.52,17.75-31.85,30.24-16.8,37.35,45,70.69,113.7,97.26,111.79,3-.22,6-.29,9-.37,26.18-.75,74.77-30.11,130.46-68.52,12.53-8.65,27.7,6.6,19,19.07-31.08,44.41-74.54,83.24-67.67,112.47.52,2.21.87,4.46,1.31,6.7,6.05,30.88,56.27,46.48,103,78.67,16.06,11.06,4.85,36.18-14.07,31.43-58.2-14.64-105.41-49.73-147.36-41.37-.75.15-1.5.25-2.26.37-30,4.62-26.68,79.22-40.17,150.53-4.46,23.54-38.54,22.36-41.34-1.44-7.62-64.89-6.07-127.56-18-138.76-1.63-1.54-3.41-2.92-5-4.48-19.52-18.79-68.25-9.05-135.54-3.27-19,1.63-25-25-7.09-31.63,63.74-23.52,114.77-50.23,124.49-63.8A13.66,13.66,0,0,1,596.5,309.66Z" transform="translate(-459.47 -147.89)"/><circle class="cls-2" cx="122.91" cy="28.2" r="7.5"/><circle class="cls-2" cx="139.91" cy="61.2" r="11.5"/><circle class="cls-2" cx="160.41" cy="98.7" r="14"/><circle class="cls-2" cx="365.27" cy="68.2" r="7.5"/><circle class="cls-2" cx="336.79" cy="92.01" r="11.5"/><circle class="cls-2" cx="304.69" cy="120.22" r="14"/><circle class="cls-2" cx="398.62" cy="274.68" r="7.5"/><circle class="cls-2" cx="365.3" cy="258.33" r="11.5"/><circle class="cls-2" cx="326.48" cy="240.46" r="14"/><circle class="cls-2" cx="197.64" cy="385.58" r="7.5"/><circle class="cls-2" cx="199.63" cy="348.52" r="11.5"/><circle class="cls-2" cx="200.88" cy="305.8" r="14"/><circle class="cls-2" cx="37.96" cy="240.18" r="7.5"/><circle class="cls-2" cx="74.04" cy="231.44" r="11.5"/><circle class="cls-2" cx="115.31" cy="220.37" r="14"/></g><g id="tentacle"><circle class="cls-3" cx="173.13" cy="166.76" r="14.17"/><circle class="cls-3" cx="209.93" cy="146.82" r="14.17"/><path class="cls-2" d="M642,357c25.88-8.81,46.86-22.5,65-39C718,344,725,425,642,357Z" transform="translate(-459.47 -147.89)"/><path class="cls-4" d="M629,327.17c-4.85-5.86-5.15-11-1.52-15.58a12.14,12.14,0,0,1,5.86-4.08c4.57-1.41,8.52.27,12,4.29a5.81,5.81,0,0,1,1.31,4.93c-1.66,8.33-7.18,12.33-14.4,12.07A4.44,4.44,0,0,1,629,327.17Z" transform="translate(-459.47 -147.89)"/><path class="cls-4" d="M662,303.17c-2-5-1-9.07,2.52-12.33a12.2,12.2,0,0,1,6.42-3.14c5.13-.74,9,2,11.89,7.25a4,4,0,0,1,.46,2.72,13.52,13.52,0,0,1-12.23,11A8.81,8.81,0,0,1,662,303.17Z" transform="translate(-459.47 -147.89)"/><path class="cls-5" d="M631,310.37c-.18,0,4.4-1.46,4.4-1.46a7.46,7.46,0,0,1,6.61,2.14S637.94,308.76,631,310.37Z" transform="translate(-459.47 -147.89)"/><path class="cls-5" d="M666.66,291.2c-.18,0,4.39-1.46,4.39-1.46a7.46,7.46,0,0,1,6.61,2.14S673.6,289.59,666.66,291.2Z" transform="translate(-459.47 -147.89)"/></g></svg>