<svg id="sun" xmlns="http://www.w3.org/2000/svg" viewBox="0 0 471.38 471.12"><defs><style>.cls-1{fill:#ffcf00;}.cls-2{fill:none;stroke:#fff;stroke-miterlimit:10;stroke-width:14px;}</style></defs><title>sunColor</title><circle id="sun-2" data-name="sun" class="cls-1" cx="233.97" cy="236.59" r="120"/><g id="rays"><path class="cls-1" d="M556.75,143.33c-10.42,38.48-16.53,86-8.92,128.39l55.06-34.55c-27.8-22.4-35.51-59.32-40.18-93.48A3,3,0,0,0,556.75,143.33Z" transform="translate(-410.03 -129.41)"/><path class="cls-1" d="M676.13,130.57c-25,31.05-49.7,72.16-59.74,114L680.68,235c-16.45-31.68-8.68-68.59.77-101.74A3,3,0,0,0,676.13,130.57Z" transform="translate(-410.03 -129.41)"/><path class="cls-1" d="M788,173.61c-37.28,14.12-79.4,37-109.24,68L739,266c1.85-35.64,27.24-63.54,52.17-87.34A3,3,0,0,0,788,173.61Z" transform="translate(-410.03 -129.41)"/><path class="cls-1" d="M864.56,268.67c-39.26-6.92-87.19-8.73-128.68,2.65l39.36,51.73c19.81-29.69,55.89-40.69,89.49-48.41A3,3,0,0,0,864.56,268.67Z" transform="translate(-410.03 -129.41)"/><path class="cls-1" d="M880.43,399.86c-28.91-27.45-67.86-55.43-108.74-68.85l4.24,64.86c32.92-13.81,69.07-3.06,101.35,9.06A3,3,0,0,0,880.43,399.86Z" transform="translate(-410.03 -129.41)"/><path class="cls-1" d="M828.62,508.65c-11.68-38.11-31.84-81.63-60.83-113.42l-28.2,58.57c35.46,4.16,61.65,31.29,83.79,57.72A3,3,0,0,0,828.62,508.65Z" transform="translate(-410.03 -129.41)"/><path class="cls-1" d="M450.82,224.33c14.33,37.2,37.5,79.18,68.67,108.85l24-60.4c-35.66-1.65-63.7-26.88-87.65-51.68A3,3,0,0,0,450.82,224.33Z" transform="translate(-410.03 -129.41)"/><path class="cls-1" d="M743.91,575.61c7.83-39.09,10.77-87,.36-128.71L691.63,485c29.22,20.5,39.38,56.83,46.3,90.6A3,3,0,0,0,743.91,575.61Z" transform="translate(-410.03 -129.41)"/><path class="cls-1" d="M410.9,331.68c27.54,28.82,65.08,58.66,105.26,74.06l-1.08-65c-33.55,12.19-69.13-.31-100.78-14A3.05,3.05,0,0,0,410.9,331.68Z" transform="translate(-410.03 -129.41)"/><path class="cls-1" d="M435.14,463.16c38.45,10.53,86,16.79,128.37,9.3l-34.38-55.15c-22.49,27.72-59.43,35.32-93.6,39.89A3,3,0,0,0,435.14,463.16Z" transform="translate(-410.03 -129.41)"/><path class="cls-1" d="M521.09,568.25c36.81-15.31,78.17-39.57,107-71.5l-61-22.41c-.71,35.69-25.2,64.38-49.36,89A3,3,0,0,0,521.09,568.25Z" transform="translate(-410.03 -129.41)"/><path class="cls-1" d="M620.81,599.59c28.06-28.32,56.87-66.66,71.16-107.25L627,495.21c13.11,33.2,1.59,69.11-11.22,101.12A3,3,0,0,0,620.81,599.59Z" transform="translate(-410.03 -129.41)"/></g><circle id="ellipse" class="cls-2" cx="234.22" cy="236.34" r="128.75"/></svg>