<svg xmlns="http://www.w3.org/2000/svg" viewBox="0 0 423.23 534.23"><defs><style>.cls-1{fill:#724f37;opacity:0.92;}.cls-2{fill:#aece04;}.cls-3,.cls-4{fill:#7b9105;}.cls-4{opacity:0.96;}.cls-5{fill:#916c53;}</style></defs><title>treeColor</title><g id="trunkLowlight"><path class="cls-1" d="M212.65,182.62a1,1,0,0,0-.54,1.22L221.8,210h0c28,34,38.92,130.07,33.42,215.74,12.89-83.53,10.84-161.37-15.36-230a12.71,12.71,0,0,0-3.43-4.91,90.59,90.59,0,0,0-15.81-11.37,1.3,1.3,0,0,0-1.47.15C217.15,181.31,215.3,181.51,212.65,182.62Z" transform="translate(-16.86 -16.27)"/></g><g id="leaf2Highlight"><path class="cls-2" d="M18.41,259.1a.9.9,0,0,1-1.47-1C43.51,199,88.48,148.11,149.8,152h22c-39,11-51,42-51,42C95.85,193,47.87,228,18.41,259.1Z" transform="translate(-16.86 -16.27)"/></g><g id="leaf1Lowlight"><path class="cls-3" d="M214.8,156c-74.34,5.54-101.8,76.09-114,164.49-4.6-58.28-1-136.84,59.65-165a42.63,42.63,0,0,1,16.06-3.94C192.42,150.89,206.26,151.63,214.8,156Z" transform="translate(-16.86 -16.27)"/></g><g id="leaf3Lowlight"><path class="cls-3" d="M223.8,158.13v-5.86a4.46,4.46,0,0,0-.68-2.35L206.8,124c-57-68-151-44-189,24,102-78,158-31,198,10C218.18,160.44,223.8,158.92,223.8,158.13Z" transform="translate(-16.86 -16.27)"/></g><g id="leaf3Highlight"><path class="cls-2" d="M169.8,152c-37.51-23.32-87.44-25.15-148.65-5.74a.86.86,0,0,1-.76-1.52C63.32,114.44,138.73,68.32,218.8,159,205.92,154.75,186.55,150.92,169.8,152Z" transform="translate(-16.86 -16.27)"/></g><g id="leaf4Lowlight"><path class="cls-4" d="M167.8,17c20.91,27.85,36.35,58.89,36,103l19,35C224.32,96.12,206.2,42.83,167.8,17Z" transform="translate(-16.86 -16.27)"/></g><g id="leaf6Lowlight"><path class="cls-4" d="M373.74,320.49c7.47-86.92-40.63-132.55-118.22-159.56-1.8-.62-12.72-5.93-31.64-.93-.61,0,1.36,3.75,1.92,4C275.61,186.29,365.09,244.15,373.74,320.49Z" transform="translate(-16.86 -16.27)"/></g><g id="leaf4Highlight"><path class="cls-2" d="M222.8,157l17-18c11-79.14-27.13-109.1-71.12-122.67a1.08,1.08,0,0,0-1,1.9C213.25,51.76,219,112.85,222.8,157Z" transform="translate(-16.86 -16.27)"/></g><g id="leaf5Highlight"><path class="cls-2" d="M224.8,161c87-92,198-46.28,215.26,57.19a1.61,1.61,0,0,1-2.7,1.43C383.67,167.56,327.8,133,252.8,160,247.38,157.39,234.62,159.81,224.8,161Z" transform="translate(-16.86 -16.27)"/></g><g id="leaf6Highlight"><path class="cls-2" d="M223.8,162c1.78,5.29,1.55,10.83-4,17C276.5,215.63,319,285.45,349,376.53a2.1,2.1,0,0,0,4,.14l19.08-46.9a22.83,22.83,0,0,0,1-14.09C353.49,237.53,305.93,184.35,223.8,162Z" transform="translate(-16.86 -16.27)"/></g><g id="trunkHighlight"><path class="cls-5" d="M221.8,210c19,108-7.13,226.73-52.5,340.5h66C272.76,410.19,258.8,249,221.8,210Z" transform="translate(-16.86 -16.27)"/><g id="leaf5Lowlight"><path class="cls-4" d="M221.8,157c50-70,107.31-63.63,165-28-62.92-26.47-107-23-162,32Z" transform="translate(-16.86 -16.27)"/></g></g><g id="leaf1Highlight"><path id="leaf1Highlight-2" data-name="leaf1Highlight" class="cls-2" d="M219,180.45c-63.51,33.92-86.83,106-91.92,208a2.54,2.54,0,0,1-4.55,1.42c-54.56-70.24.14-239.49,90.54-233.95,1.14.07,2.28.13,3.43.13h4.84a4.9,4.9,0,0,1,4.84,4.59,32.41,32.41,0,0,1-2.36,14.68A10.83,10.83,0,0,1,219,180.45Z" transform="translate(-16.86 -16.27)"/></g></svg>